<?xml version="1.0" encoding="UTF-8"?>
<svg version="1.1" xmlns="http://www.w3.org/2000/svg" width="512" height="512">
<path d="M0 0 C1.17048602 -0.00384115 2.34097204 -0.00768229 3.54692733 -0.01163983 C5.49278502 -0.01034011 5.49278502 -0.01034011 7.47795296 -0.00901413 C8.86118532 -0.0115964 10.24441694 -0.01460918 11.62764752 -0.01801753 C15.44229556 -0.0261077 19.25692481 -0.02787823 23.07158041 -0.028615 C27.18088444 -0.03046218 31.29017864 -0.03800807 35.39947701 -0.04475021 C44.39367777 -0.05835082 53.38787408 -0.06436162 62.38208342 -0.06876087 C67.99878948 -0.07152174 73.61549382 -0.07575894 79.23219872 -0.08026505 C94.78310412 -0.09246255 110.33400813 -0.10275923 125.88491821 -0.10614014 C126.88091422 -0.1063597 127.87691022 -0.10657927 128.90308792 -0.10680549 C130.40068156 -0.10713291 130.40068156 -0.10713291 131.92852962 -0.10746694 C133.95168742 -0.1079104 135.97484521 -0.10835697 137.99800301 -0.10880661 C139.00156146 -0.10902804 140.00511991 -0.10924947 141.03908922 -0.10947761 C157.2844903 -0.11342189 173.52984642 -0.13086246 189.77523015 -0.15416613 C206.45433624 -0.17789864 223.13341979 -0.19034294 239.81254303 -0.19150805 C249.17695824 -0.19242402 258.54131496 -0.19815619 267.90571404 -0.21632767 C275.88403074 -0.23175464 283.86227091 -0.23683402 291.8405997 -0.22858956 C295.90889323 -0.22469154 299.97703274 -0.22557085 304.04530716 -0.23964691 C307.77639758 -0.25243767 311.50721908 -0.25114331 315.2383094 -0.2390562 C317.21367676 -0.23619148 319.189049 -0.24799597 321.164379 -0.26047826 C337.44157452 -0.17083472 350.3543979 4.45488259 362.23530769 15.71345901 C376.91754737 31.22251424 377.90663132 48.8291144 377.52437019 69.13142776 C378.26168877 69.25446777 378.99900734 69.37750778 379.7586689 69.50427628 C388.37432666 71.45796614 394.47574126 77.48781303 400.50483894 83.58064651 C401.32132408 84.39330475 402.13780922 85.20596298 402.97903633 86.04324722 C404.6939707 87.75547372 406.40392085 89.47270551 408.10908699 91.19466019 C410.70092282 93.80789003 413.31337532 96.39911849 415.92866707 98.98884964 C417.60117469 100.66400127 419.27244065 102.34039372 420.94233894 104.01814651 C422.10034256 105.16400475 422.10034256 105.16400475 423.28174019 106.33301163 C432.64163306 115.85428529 437.92795115 125.45943339 437.89937019 138.94392776 C437.8969532 140.13260452 437.8969532 140.13260452 437.89448738 141.34529495 C437.76363122 147.60843025 436.67285027 152.64627083 433.52437019 158.13142776 C432.96749519 159.12142776 432.41062019 160.11142776 431.83687019 161.13142776 C431.07374519 162.12142776 430.31062019 163.11142776 429.52437019 164.13142776 C429.04814217 164.7678923 428.57191414 165.40435684 428.08125496 166.06010818 C423.64469774 171.47741396 419.08659109 175.22139556 413.29471016 179.09885597 C397.40788889 189.92467466 380.76366651 203.62601739 376.68805981 223.34616876 C372.32872887 248.84210169 374.13841193 275.60361785 375.16694546 301.31912732 C375.63441781 313.21307122 375.81817388 325.10927221 376.00483894 337.01033401 C376.2032772 349.17326881 376.42604349 361.33235086 376.82612801 373.49052811 C376.85557157 374.42014933 376.88501513 375.34977055 376.91535091 376.30756211 C377.05269951 380.63945709 377.20021064 384.97039539 377.37011909 389.30113602 C377.97346676 406.53972556 375.64101501 422.04260597 363.52437019 435.13142776 C355.5646405 443.55442215 345.3565973 450.69613541 333.39937019 451.37752151 C330.2587901 450.96532038 328.60319334 449.40514058 326.52437019 447.13142776 C326.19437019 446.47142776 325.86437019 445.81142776 325.52437019 445.13142776 C318.92437019 445.13142776 312.32437019 445.13142776 305.52437019 445.13142776 C305.19437019 446.45142776 304.86437019 447.77142776 304.52437019 449.13142776 C302.98739795 451.16232674 302.13856948 452.01002177 299.62192631 452.50747526 C298.89822629 452.50796231 298.17452627 452.50844937 297.42889595 452.50895119 C296.59165835 452.51677443 295.75442076 452.52459767 294.89181232 452.53265798 C293.97190164 452.52596582 293.05199095 452.51927365 292.10420418 452.51237869 C290.63813838 452.51939865 290.63813838 452.51939865 289.1424551 452.52656043 C285.85165527 452.53857145 282.56126722 452.52902877 279.27046394 452.51961136 C276.91664066 452.52367476 274.56281928 452.52901534 272.20900154 452.53554153 C265.79896973 452.54926036 259.38908223 452.54389448 252.97904778 452.53440428 C248.96987071 452.52907402 244.96070356 452.53007586 240.95152473 452.53287506 C239.95290691 452.53356461 239.95290691 452.53356461 238.93411499 452.53426809 C237.58143448 452.53522732 236.22875397 452.53619996 234.87607348 452.53718586 C222.17579865 452.54575007 209.47558865 452.535895 196.77532446 452.51978476 C185.91234343 452.50642993 175.04945879 452.50866754 164.18647957 452.52254105 C151.55630883 452.53866411 138.92619534 452.54487416 126.29601574 452.53570426 C124.94343313 452.53474871 123.59085052 452.5338056 122.2382679 452.53287506 C121.57291171 452.53241223 120.90755552 452.53194941 120.22203702 452.53147256 C115.5676642 452.52889904 110.91332902 452.53336798 106.25895882 452.54031372 C99.96180142 452.54905277 93.66482355 452.54283599 87.36768532 452.52563095 C85.06970961 452.52170015 82.77171852 452.52274084 80.47374916 452.52941895 C63.32159595 452.57462304 46.70683752 451.41390337 30.14937019 446.56892776 C28.86655159 446.19646927 28.86655159 446.19646927 27.55781746 445.81648636 C-9.82042298 434.34642005 -41.02248367 406.79286166 -59.30766106 372.52595901 C-69.08347183 353.2868465 -74.62656722 332.36500438 -74.62280083 310.78520584 C-74.62647752 309.64908611 -74.6301542 308.51296639 -74.63394231 307.34241879 C-74.6449475 303.53884816 -74.6488176 299.73530488 -74.65263176 295.93172073 C-74.65836996 293.20304508 -74.66553334 290.47437347 -74.67254448 287.74570084 C-74.69225824 279.56161564 -74.70236752 271.3775293 -74.71127227 263.19342631 C-74.71566254 259.33385271 -74.72102733 255.47428047 -74.72626114 251.61470795 C-74.74326648 238.77608081 -74.75775992 225.93745449 -74.76500988 213.09881783 C-74.76691958 209.77114613 -74.76883994 206.44347444 -74.77079582 203.11580276 C-74.77127956 202.28878979 -74.7717633 201.46177681 -74.7722617 200.60970284 C-74.78055951 187.21701133 -74.80589531 173.82440921 -74.8383765 160.43175672 C-74.87149255 146.66452948 -74.88946264 132.89734761 -74.89265412 119.13008034 C-74.89481475 111.40720514 -74.90349792 103.6844604 -74.9291153 95.96162415 C-74.95088434 89.3840332 -74.95884228 82.80660443 -74.94914851 76.22898154 C-74.94462188 72.87732954 -74.94860195 69.52628142 -74.96590996 66.17463112 C-75.06380769 46.08724605 -74.08072139 30.36259245 -59.78812981 14.88142776 C-54.27661309 9.6808721 -47.09016364 4.53991935 -39.53812981 3.00642776 C-35.97977854 3.15166659 -34.22106563 3.88516209 -31.47562981 6.13142776 C-31.47562981 6.79142776 -31.47562981 7.45142776 -31.47562981 8.13142776 C-28.03486651 7.94064658 -24.59980965 7.6972512 -21.16312981 7.44392776 C-20.18666496 7.39043167 -19.21020012 7.33693558 -18.20414543 7.28181839 C-15.53315574 7.07070924 -13.0632372 6.82996162 -10.47562981 6.13142776 C-8.34818142 3.77209266 -8.34818142 3.77209266 -7.47562981 1.13142776 C-4.85709666 -0.17783881 -2.93397046 0.00359796 0 0 Z " fill="#F6EE86" transform="translate(74.47562980651855,29.868572235107422)"/>
<path d="M0 0 C1.17048602 -0.00384115 2.34097204 -0.00768229 3.54692733 -0.01163983 C5.49278502 -0.01034011 5.49278502 -0.01034011 7.47795296 -0.00901413 C8.86118532 -0.0115964 10.24441694 -0.01460918 11.62764752 -0.01801753 C15.44229556 -0.0261077 19.25692481 -0.02787823 23.07158041 -0.028615 C27.18088444 -0.03046218 31.29017864 -0.03800807 35.39947701 -0.04475021 C44.39367777 -0.05835082 53.38787408 -0.06436162 62.38208342 -0.06876087 C67.99878948 -0.07152174 73.61549382 -0.07575894 79.23219872 -0.08026505 C94.78310412 -0.09246255 110.33400813 -0.10275923 125.88491821 -0.10614014 C126.88091422 -0.1063597 127.87691022 -0.10657927 128.90308792 -0.10680549 C130.40068156 -0.10713291 130.40068156 -0.10713291 131.92852962 -0.10746694 C133.95168742 -0.1079104 135.97484521 -0.10835697 137.99800301 -0.10880661 C139.00156146 -0.10902804 140.00511991 -0.10924947 141.03908922 -0.10947761 C157.2844903 -0.11342189 173.52984642 -0.13086246 189.77523015 -0.15416613 C206.45433624 -0.17789864 223.13341979 -0.19034294 239.81254303 -0.19150805 C249.17695824 -0.19242402 258.54131496 -0.19815619 267.90571404 -0.21632767 C275.88403074 -0.23175464 283.86227091 -0.23683402 291.8405997 -0.22858956 C295.90889323 -0.22469154 299.97703274 -0.22557085 304.04530716 -0.23964691 C307.77639758 -0.25243767 311.50721908 -0.25114331 315.2383094 -0.2390562 C317.21367676 -0.23619148 319.189049 -0.24799597 321.164379 -0.26047826 C337.44157452 -0.17083472 350.3543979 4.45488259 362.23530769 15.71345901 C376.91754737 31.22251424 377.90663132 48.8291144 377.52437019 69.13142776 C378.26168877 69.25446777 378.99900734 69.37750778 379.7586689 69.50427628 C388.37432666 71.45796614 394.47574126 77.48781303 400.50483894 83.58064651 C401.32132408 84.39330475 402.13780922 85.20596298 402.97903633 86.04324722 C404.6939707 87.75547372 406.40392085 89.47270551 408.10908699 91.19466019 C410.70092282 93.80789003 413.31337532 96.39911849 415.92866707 98.98884964 C417.60117469 100.66400127 419.27244065 102.34039372 420.94233894 104.01814651 C422.10034256 105.16400475 422.10034256 105.16400475 423.28174019 106.33301163 C432.64163306 115.85428529 437.92795115 125.45943339 437.89937019 138.94392776 C437.89775887 139.73637894 437.89614754 140.52883011 437.89448738 141.34529495 C437.76363122 147.60843025 436.67285027 152.64627083 433.52437019 158.13142776 C432.96749519 159.12142776 432.41062019 160.11142776 431.83687019 161.13142776 C431.07374519 162.12142776 430.31062019 163.11142776 429.52437019 164.13142776 C429.04814217 164.7678923 428.57191414 165.40435684 428.08125496 166.06010818 C423.64469774 171.47741396 419.08659109 175.22139556 413.29471016 179.09885597 C397.40788889 189.92467466 380.76366651 203.62601739 376.68805981 223.34616876 C372.32872887 248.84210169 374.13841193 275.60361785 375.16694546 301.31912732 C375.63441781 313.21307122 375.81817388 325.10927221 376.00483894 337.01033401 C376.2032772 349.17326881 376.42604349 361.33235086 376.82612801 373.49052811 C376.85557157 374.42014933 376.88501513 375.34977055 376.91535091 376.30756211 C377.05269951 380.63945709 377.20021064 384.97039539 377.37011909 389.30113602 C377.97346676 406.53972556 375.64101501 422.04260597 363.52437019 435.13142776 C355.60616363 443.51048233 345.33384832 450.786729 333.40327644 451.35799026 C331.52437019 451.13142776 331.52437019 451.13142776 328.46187019 449.63142776 C326.52437019 447.13142776 326.52437019 447.13142776 325.96187019 443.63142776 C326.62608348 439.49854507 327.34855925 438.73455149 330.52437019 436.13142776 C332.7196393 435.13631201 334.95433871 434.22582898 337.21187019 433.38142776 C346.90110012 429.46796102 353.12765625 424.25123091 357.55171394 414.72127151 C359.71141395 408.97074498 360.77387011 403.91412365 360.76487923 397.75986099 C360.76658808 397.05150901 360.76829693 396.34315703 360.77005756 395.61333984 C360.77333164 393.25801695 360.76238349 390.90298384 360.75142097 388.54768753 C360.75085641 386.85209535 360.75117431 385.15650269 360.75230598 383.4609108 C360.75287873 378.87051953 360.74113708 374.28023323 360.72715807 369.6898663 C360.71463767 364.88791645 360.71347918 360.08596406 360.71110725 355.2840004 C360.70489634 346.19647315 360.68849076 337.10899415 360.66840827 328.02148813 C360.6460372 317.67328278 360.6350528 307.3250751 360.6250174 296.97685158 C360.6041242 275.69501674 360.56895576 254.41322529 360.52437019 233.13142776 C359.89121517 233.76734817 359.25806015 234.40326857 358.60571861 235.05845928 C343.16323888 250.56733767 327.7123507 266.06779524 312.25218773 281.55904675 C304.7758181 289.05085209 297.30226759 296.54542886 289.83540535 304.04671097 C283.32346447 310.58865536 276.80617764 317.12521924 270.28255153 323.65551192 C266.83201241 327.10994478 263.38411662 330.56692214 259.94262123 334.0303669 C256.69559067 337.29793596 253.44139528 340.55820175 250.1818428 343.8132782 C248.99417201 345.00176649 247.80902045 346.19277922 246.62676239 347.38665199 C237.43687886 356.66228033 227.76270274 365.82540186 215.77437019 371.38142776 C215.07158943 371.70731888 214.36880867 372.03320999 213.64473152 372.36897659 C204.76075411 376.21974992 195.36332074 377.85837767 185.87495613 379.53279495 C182.31583274 380.16868613 178.76841684 380.85408121 175.21968269 381.54549026 C172.75906041 382.01329715 170.29812769 382.47947446 167.83687019 382.94392776 C166.70402596 383.16331009 165.57118172 383.38269241 164.40400887 383.60872269 C153.91840661 385.51358787 143.31438314 387.23787371 133.73921394 381.66658401 C126.60470861 376.7215036 121.82180071 370.6329794 119.52437019 362.13142776 C119.08345627 355.2973106 119.85719804 348.79894459 121.09858894 342.09236526 C121.26429893 341.16783554 121.43000893 340.24330582 121.60074043 339.29076004 C121.95202243 337.34541725 122.30773159 335.40086912 122.66768074 333.45711136 C123.20621502 330.53709103 123.72460598 327.61399866 124.24116707 324.69002151 C128.4769099 301.20580643 134.83397752 281.73435377 152.17476082 264.46687698 C152.80273567 263.8409465 153.43071053 263.21501602 154.07771492 262.57011795 C154.55511116 262.09535019 155.0325074 261.62058243 155.52437019 261.13142776 C154.29519371 261.13000275 153.06601723 261.12857773 151.79959297 261.12710953 C140.21936255 261.11044468 128.63948377 261.06768652 117.05943966 260.9993372 C111.10588537 260.96503713 105.15258852 260.93995247 99.19893074 260.93587112 C93.4539581 260.93159474 87.70956651 260.9031861 81.96477509 260.85799599 C79.77235675 260.84499997 77.57986896 260.84072071 75.38741684 260.84527397 C72.31760116 260.85016482 69.24949359 260.82415359 66.17988777 260.79085159 C64.81826767 260.80379005 64.81826767 260.80379005 63.42914009 260.8169899 C58.97630626 260.735939 57.09473195 260.56822812 53.45605659 257.78162003 C51.52437019 255.13142776 51.52437019 255.13142776 50.96187019 252.06892776 C51.68780083 248.27795664 52.33402755 247.33093646 55.52437019 245.13142776 C59.04421387 244.71806208 62.49455333 245.02502729 66.02046394 245.28377151 C68.24270205 245.4089617 70.46503867 245.53241209 72.68745613 245.65437698 C73.86980843 245.72493301 75.05216072 245.79548904 76.27034187 245.86818314 C83.28206839 246.24947953 90.30168701 246.42588599 97.32039452 246.63151932 C104.70492803 246.85101494 112.06564276 247.14306405 119.43696785 247.65828323 C154.23325254 250.27263225 154.23325254 250.27263225 184.51988029 235.57340622 C196.46159154 225.00258563 206.86315326 212.78539768 216.52437019 200.13142776 C215.00697306 200.13061061 215.00697306 200.13061061 213.45892143 200.12977695 C188.86411691 200.11539258 164.26948959 200.07242184 139.67478752 199.9993372 C127.78104023 199.96465859 115.88740919 199.93932791 103.99360847 199.93587112 C93.62904883 199.93283523 83.26469605 199.91239519 72.90021634 199.87090319 C67.41035584 199.84953755 61.92078971 199.83699092 56.43088722 199.84527397 C51.26631752 199.85279149 46.10234538 199.83708503 40.93788528 199.80336761 C39.03999086 199.79510656 37.14203731 199.79541692 35.24414825 199.80483055 C32.65681177 199.81639591 30.07145229 199.7974228 27.4842701 199.77066422 C26.72940465 199.78133747 25.9745392 199.79201073 25.19679904 199.80300742 C21.41333491 199.72976469 19.82598295 199.41413876 17.0229702 196.78678799 C15.52437019 194.13142776 15.52437019 194.13142776 15.58687019 191.00642776 C16.93138141 186.88326004 16.93138141 186.88326004 19.52437019 185.13142776 C22.20403916 185.06583036 24.59611639 185.180754 27.24469185 185.45944595 C28.04073365 185.52915407 28.83677546 185.59886219 29.65693974 185.67068267 C31.40810792 185.82443578 33.158703 185.98482016 34.90874898 186.15085948 C39.79534765 186.60902203 44.68736758 187.00038788 49.57936287 187.39601517 C51.15213117 187.52433116 51.15213117 187.52433116 52.75667256 187.6552394 C74.95571553 189.43513262 97.20752895 190.42145736 119.46187019 191.19392776 C121.28967734 191.25815343 121.28967734 191.25815343 123.15440989 191.32367659 C179.51381048 193.22559571 232.67016487 194.87147872 276.30161065 154.91260558 C284.4831282 147.24230412 291.94925832 138.97920119 299.21187019 130.44392776 C299.7571504 129.80485316 300.3024306 129.16577855 300.86423445 128.50733805 C310.52710199 117.14150759 319.88186803 105.52963479 328.36415291 93.25038528 C328.75154343 92.69144874 329.13893396 92.1325122 329.53806359 91.55663818 C331.32608352 88.96635829 333.08150315 86.3617353 334.79396152 83.72075367 C340.15186494 75.73334212 346.98485674 70.34991927 356.52437019 68.13142776 C358.19085825 68.10702823 359.85793729 68.10351432 361.52437019 68.13142776 C361.47177841 64.50531476 361.37654622 60.88145564 361.27437019 57.25642776 C361.26019051 56.24322464 361.24601082 55.23002151 361.23140144 54.18611526 C360.87454669 43.05224709 357.34783588 34.15470691 349.52437019 26.13142776 C341.50931429 19.6342674 333.07332965 16.00896116 322.70410252 16.00393581 C321.53315995 16.00092817 320.36221738 15.99792052 319.1557917 15.99482173 C317.87350766 15.9965721 316.59122361 15.99832247 315.27008247 16.00012589 C313.89093404 15.99842322 312.5117861 15.9962733 311.13263899 15.99371463 C308.13468296 15.98912089 305.13674757 15.98769613 302.13878822 15.98867989 C297.26102576 15.99027354 292.38328377 15.98506878 287.50552559 15.9790535 C280.42453136 15.9709429 273.34354074 15.96599758 266.26254272 15.96276283 C255.07478379 15.95726645 243.88705533 15.94037017 232.69931221 15.92142105 C228.87237268 15.91506453 225.04543307 15.90875611 221.21849346 15.90244389 C220.26214334 15.90086012 219.30579323 15.89927636 218.3204628 15.89764461 C207.43587878 15.87971033 196.55129261 15.86348167 185.66670418 15.84846878 C184.67171559 15.84709291 183.67672701 15.84571704 182.65158726 15.84429947 C166.51415884 15.82235173 150.37673827 15.81160862 134.23929756 15.80409803 C117.67762291 15.79603454 101.11601569 15.77277108 84.55437952 15.73614436 C74.33467816 15.7140909 64.11511531 15.70446337 53.89539135 15.7106447 C46.89690897 15.71381284 39.89854515 15.70253201 32.90009945 15.67975029 C28.85907789 15.66705014 24.81832037 15.66095147 20.77728844 15.67216682 C17.08055886 15.68229516 13.38434315 15.67417042 9.68767459 15.65130387 C7.71152294 15.64390466 5.7353281 15.65627585 3.75920528 15.66926402 C2.00670305 15.65301768 2.00670305 15.65301768 0.21879673 15.63644314 C-1.29677849 15.63497793 -1.29677849 15.63497793 -2.84297138 15.63348311 C-6.19671282 14.99391521 -7.36551509 13.75967143 -9.47562981 11.13142776 C-10.41312981 8.69392776 -10.41312981 8.69392776 -10.47562981 6.13142776 C-7.82737611 0.58270574 -5.91683855 0.00725588 0 0 Z " fill="#020202" transform="translate(74.47562980651855,29.868572235107422)"/>
<path d="M0 0 C3 2 3 2 3.46875 4.0234375 C3.55288986 10.35496183 3.55288986 10.35496183 1.125 13.1875 C-0.69326914 14.2420961 -2.51554968 15.28994308 -4.34765625 16.3203125 C-14.01238764 21.88883044 -20.35814578 28.92765639 -23.55323964 39.89987022 C-24.3201279 43.5048563 -24.14043152 47.17798621 -24.13371277 50.84843445 C-24.13597833 51.75205068 -24.13824388 52.65566691 -24.14057809 53.58666545 C-24.14691921 56.62118507 -24.14608864 59.65566003 -24.14526367 62.69018555 C-24.14825515 64.86333779 -24.15165765 67.0364895 -24.15544128 69.2096405 C-24.16428804 75.11891322 -24.16661972 81.02817147 -24.16725707 86.93745017 C-24.16820605 91.87018068 -24.17188434 96.8029078 -24.17542917 101.73563701 C-24.18357679 113.3757617 -24.18601317 125.01587865 -24.18530273 136.65600586 C-24.18470229 148.66083068 -24.19524674 160.66560025 -24.2110464 172.67041558 C-24.22412751 182.97713548 -24.22948637 193.2838407 -24.22884732 203.59056884 C-24.22859245 209.74612719 -24.23143793 215.90164559 -24.24202538 222.05719566 C-24.25171557 227.84951685 -24.25177915 233.64175999 -24.24450874 239.43408394 C-24.24346396 241.55727121 -24.24581949 243.68046336 -24.2518692 245.80364227 C-24.25960725 248.70806859 -24.25493221 251.61222664 -24.24723816 254.51664734 C-24.25238172 255.35149381 -24.25752529 256.18634028 -24.26282471 257.04648513 C-24.21626628 265.0319951 -22.80756088 272.11384575 -19.125 279.25 C-18.63257812 280.22453125 -18.14015625 281.1990625 -17.6328125 282.203125 C-11.90980606 292.00616952 -2.6782153 297.66193606 8 301 C11.62242256 301.85032985 14.96793226 302.12421929 18.68554688 302.12597656 C19.80441284 302.12978333 20.92327881 302.13359009 22.0760498 302.13751221 C23.27814087 302.13853943 24.48023193 302.13956665 25.71875 302.140625 C28.28646714 302.1589617 30.85417571 302.17853279 33.421875 302.19921875 C37.45253479 302.22942485 41.48288798 302.25233208 45.51367188 302.25048828 C49.41585558 302.25384727 53.31678608 302.28855146 57.21875 302.328125 C58.40464722 302.3210553 59.59054443 302.3139856 60.81237793 302.30670166 C73.78548677 302.49284095 84.7751668 306.7751668 94 316 C103.32602264 326.47384081 105.60126082 338.72394866 105.50390625 352.38671875 C105.51332748 353.60978226 105.52274872 354.83284576 105.53245544 356.0929718 C105.56085529 359.95798935 105.56419236 363.82238715 105.5625 367.6875 C105.5661215 371.56323303 105.57577753 375.43852218 105.60325623 379.31416321 C105.61989491 381.71269672 105.62304004 384.11137638 105.61024475 386.50993347 C105.68777743 398.88277621 109.16340257 410.92457561 118 420 C128.04897523 428.12430962 137.99297846 432.16209884 150.90138245 432.13130188 C151.69095791 432.13341759 152.48053338 432.13553331 153.29403538 432.13771313 C155.93635334 432.14369853 158.57862335 432.14271404 161.22094727 432.1418457 C163.11664918 432.14487806 165.01235036 432.14839973 166.90805054 432.15237427 C170.98843529 432.16025598 175.06881134 432.16540536 179.14920235 432.16866493 C185.59867655 432.17457696 192.04809564 432.19111775 198.49754333 432.21000671 C200.70548722 432.21634374 202.91343114 432.22266937 205.12137508 432.22898388 C206.22695102 432.23214969 207.33252695 432.2353155 208.47160518 432.23857725 C223.48586192 432.28066702 238.50009245 432.3136498 253.5144043 432.32592773 C263.64421714 432.33429646 273.77389302 432.35673968 283.90363735 432.3952834 C289.26484456 432.41507783 294.62584687 432.42743726 299.98709297 432.42244911 C305.0260704 432.41781755 310.06465866 432.43152609 315.10355759 432.45946121 C316.95469701 432.46639715 318.80587648 432.46647388 320.65701485 432.45926094 C323.18034441 432.4504201 325.70237729 432.46598742 328.2256012 432.48774719 C328.96149225 432.47930466 329.69738331 432.47086212 330.4555741 432.46216375 C333.8405225 432.5163033 335.69976734 432.77821619 338.45464993 434.8132658 C340.71828449 438.01640223 340.54628625 440.17599625 340 444 C338.56502628 446.18742466 338.56502628 446.18742466 336 448 C332.82296332 448.59627272 329.68399091 448.53497923 326.45957947 448.50120544 C325.48134785 448.50673984 324.50311623 448.51227424 323.49524122 448.51797634 C320.20742745 448.5316214 316.92036778 448.51659159 313.63256836 448.50170898 C311.27859677 448.50549111 308.9246274 448.51099027 306.57066345 448.51808167 C300.16477614 448.53207872 293.7591562 448.52083138 287.35328364 448.50437045 C281.32151377 448.49024742 275.28974071 448.49613125 269.25796122 448.49950016 C257.28805947 448.50538321 245.31826273 448.49119909 233.34838867 448.46655273 C221.7679448 448.44271124 210.18764172 448.43551643 198.60717773 448.44604492 C185.98175492 448.45750301 173.35639731 448.45931798 160.73097521 448.44494683 C159.37896987 448.44342116 158.02696453 448.4419008 156.67495918 448.44038582 C155.67736738 448.4392491 155.67736738 448.4392491 154.6596222 448.43808941 C150.00774569 448.43337784 145.35589956 448.43528649 140.70402336 448.43945122 C134.41094657 448.44426382 128.11806205 448.43394376 121.82502174 448.41249657 C119.52866133 448.40698281 117.23228223 448.40641286 114.93592072 448.41144943 C97.79161666 448.44430277 81.17471296 447.28020656 64.625 442.4375 C63.3421814 442.0650415 63.3421814 442.0650415 62.03344727 441.68505859 C24.65520682 430.21499229 -6.54685387 402.66143389 -24.83203125 368.39453125 C-34.60784203 349.15541873 -40.15093741 328.23357661 -40.14717102 306.65377808 C-40.15084771 305.51765835 -40.1545244 304.38153862 -40.1583125 303.21099102 C-40.1693177 299.4074204 -40.1731878 295.60387711 -40.17700195 291.80029297 C-40.18274015 289.07161731 -40.18990353 286.34294571 -40.19691467 283.61427307 C-40.21662843 275.43018787 -40.22673771 267.24610153 -40.23564246 259.06199855 C-40.24003273 255.20242495 -40.24539753 251.34285271 -40.25063133 247.48328018 C-40.26763668 234.64465304 -40.28213012 221.80602673 -40.28938007 208.96739006 C-40.29128977 205.63971836 -40.29321014 202.31204667 -40.29516602 198.984375 C-40.29564976 198.15736202 -40.2961335 197.33034905 -40.2966319 196.47827508 C-40.3049297 183.08558357 -40.3302655 169.69298145 -40.36274669 156.30032896 C-40.39586275 142.53310171 -40.41383284 128.76591984 -40.41702431 114.99865258 C-40.41918494 107.27577738 -40.42786811 99.55303263 -40.45348549 91.83019638 C-40.47525453 85.25260543 -40.48321248 78.67517666 -40.47351871 72.09755377 C-40.46899207 68.74590178 -40.47297214 65.39485366 -40.49028015 62.04320335 C-40.58817788 41.95581829 -39.60509158 26.23116469 -25.3125 10.75 C-18.53575401 4.30544744 -9.53256909 -2.18454708 0 0 Z " fill="#010100" transform="translate(40,34)"/>
<path d="M0 0 C3.30081038 1.60182585 5.67526588 4.31674804 8.21563053 6.90402508 C8.84044315 7.52839962 9.46525578 8.15277416 10.10900211 8.79606915 C12.17224315 10.86140002 14.22465538 12.93715355 16.27715397 15.01315594 C17.70567796 16.44727516 19.13486578 17.88073342 20.56469059 19.31355572 C24.32617751 23.08649701 28.07856852 26.86836072 31.82915592 30.65213299 C35.65794679 34.51161171 39.49524418 38.36261192 43.33184147 42.21432781 C50.85843548 49.77309648 58.37545052 57.34131536 65.88652897 64.91549969 C61.04654985 70.7447152 55.83881246 76.09896388 50.47222233 81.44333172 C49.07844112 82.83733196 49.07844112 82.83733196 47.65650272 84.25949383 C45.12577856 86.79050316 42.59199732 89.31843137 40.0576303 91.84579229 C37.3969479 94.50018553 34.73913332 97.15744725 32.08100224 99.81439495 C27.04947191 104.84282494 22.01540082 109.86870322 16.9803949 114.8936528 C11.26562426 120.59725439 5.55368294 126.3036858 -0.15801346 132.01036572 C-9.92505733 141.7687358 -19.69421149 151.52498851 -29.46573544 161.27887249 C-31.02518643 162.83552725 -32.58448778 164.39233195 -34.14359379 165.94933224 C-35.33661869 167.14011036 -36.53037272 168.33015941 -37.72548389 169.51884365 C-40.22833017 172.01051017 -42.61593308 174.55560284 -44.92597103 177.22799969 C-45.8328265 178.27407391 -45.8328265 178.27407391 -46.75800228 179.34128094 C-47.20530697 179.86077312 -47.65261166 180.38026531 -48.11347103 180.91549969 C-65.89910625 177.47311868 -65.89910625 177.47311868 -71.11347103 170.91549969 C-72.47834452 168.02643756 -73.54837756 165.05096936 -74.61347103 162.04049969 C-77.54826119 153.82576741 -80.10795781 147.35149583 -88.11347103 142.91549969 C-91.90100816 141.32607108 -95.77263551 139.98121463 -99.65643978 138.64792156 C-104.46840933 136.89263718 -107.3887573 135.47857449 -110.11347103 130.91549969 C-111.63300228 127.54049969 -111.63300228 127.54049969 -112.92597103 123.91549969 C-113.36554134 122.71924969 -113.80511166 121.52299969 -114.25800228 120.29049969 C-115.15945046 116.73410137 -115.20607886 115.34914948 -114.11347103 111.91549969 C-112.25245094 109.54832172 -112.25245094 109.54832172 -109.76817989 107.05554485 C-109.31278987 106.5932093 -108.85739984 106.13087374 -108.38821012 105.65452802 C-106.86225376 104.11029858 -105.32241292 102.58072602 -103.7821722 101.05075359 C-102.68425534 99.94577863 -101.58718413 98.83996286 -100.49089718 97.73337078 C-97.51261557 94.73257869 -94.52173125 91.74465379 -91.52774501 88.75954008 C-89.03114668 86.26804798 -86.54076919 83.7703849 -84.0503729 81.2726959 C-78.17800802 75.38332822 -72.29541895 69.50431448 -66.40619564 63.63180828 C-60.32417193 57.56672565 -54.25873867 51.48541142 -48.20134658 45.39573634 C-43.00357823 40.17131532 -37.7962053 34.95661089 -32.58084565 29.74975049 C-29.46434538 26.63818967 -26.35156373 23.52312644 -23.24776936 20.39888668 C-20.3311235 17.4639504 -17.40268652 14.54132416 -14.46457005 11.62788677 C-13.38630285 10.55464766 -12.31231079 9.47709431 -11.24288082 8.3950491 C-9.78637728 6.92272596 -8.31546288 5.46654604 -6.8397131 4.01355267 C-6.01877257 3.19319845 -5.19783205 2.37284424 -4.35201454 1.52763081 C-2.11347103 -0.08450031 -2.11347103 -0.08450031 0 0 Z " fill="#A2DDFD" transform="translate(354.11347103118896,190.08450031280518)"/>
<path d="M0 0 C0.5165918 0.39106934 1.03318359 0.78213867 1.56542969 1.18505859 C13.73749615 10.36348516 25.89131673 18.08542672 41.64135742 18.1418457 C43.30414986 18.15239738 43.30414986 18.15239738 45.00053406 18.16316223 C46.78497673 18.16940865 46.78497673 18.16940865 48.60546875 18.17578125 C51.14128431 18.19898355 53.67709162 18.22310105 56.21289062 18.24804688 C60.19781161 18.28310771 64.18217953 18.31248205 68.16723633 18.32592773 C72.02201751 18.34146831 75.87592144 18.38172096 79.73046875 18.42578125 C80.90997604 18.42387283 82.08948334 18.42196442 83.30473328 18.41999817 C91.86527179 18.54556311 99.20017015 19.77840512 105.875 25.4375 C106.57625 26.283125 107.2775 27.12875 108 28 C109.051875 29.175625 109.051875 29.175625 110.125 30.375 C115.29246015 37.60944421 115.4405325 43.8268968 115.44140625 52.51171875 C115.46121803 54.31863945 115.46121803 54.31863945 115.48143005 56.1620636 C115.52220991 60.00389904 115.54394659 63.8454977 115.5625 67.6875 C115.58640802 71.51157502 115.61476492 75.33543107 115.65428162 79.15937805 C115.67833111 81.53347677 115.69343833 83.90768978 115.69789124 86.28190613 C115.86032924 103.78546453 119.93042021 116.75398024 131.49609375 130.20703125 C133 132 133 132 133 133 C98.40681212 134.3945742 66.93064619 121.3404891 41.3125 98.25 C23.46895179 81.64057216 11.63275612 60.15819472 4.61376953 37.00830078 C4.10065815 35.32936115 3.55256131 33.66116595 2.99609375 31.99609375 C-0.10468001 21.70511996 0.24532841 10.6643309 0 0 Z " fill="#ECCF75" transform="translate(15,333)"/>
<path d="M0 0 C3.12339395 28.996842 3.12339395 28.996842 -3.9375 38.1328125 C-8.13569625 42.59718173 -12.74877663 46.8020609 -18 50 C-18.66 50 -19.32 50 -20 50 C-20.268125 50.598125 -20.53625 51.19625 -20.8125 51.8125 C-21.99917406 53.99847854 -23.09599113 55.41332594 -25 57 C-25.66 57 -26.32 57 -27 57 C-27.37125 57.86625 -27.37125 57.86625 -27.75 58.75 C-29.18299988 61.32939979 -30.78424676 63.06121592 -33 65 C-33.66 65 -34.32 65 -35 65 C-35.4021875 65.8971875 -35.4021875 65.8971875 -35.8125 66.8125 C-36.99917406 68.99847854 -38.09599113 70.41332594 -40 72 C-40.66 72 -41.32 72 -42 72 C-42.25402588 72.57868835 -42.50805176 73.15737671 -42.76977539 73.75360107 C-44.13854594 76.25298587 -45.67221859 77.92619195 -47.68359375 79.94238281 C-48.43777588 80.70286926 -49.19195801 81.46335571 -49.96899414 82.24688721 C-51.19090454 83.46272491 -51.19090454 83.46272491 -52.4375 84.703125 C-53.27337646 85.54091492 -54.10925293 86.37870483 -54.97045898 87.24188232 C-56.73663557 89.00941903 -58.50533688 90.77443602 -60.27636719 92.53710938 C-62.99646881 95.24648274 -65.70571999 97.96637765 -68.4140625 100.6875 C-70.12956717 102.40168357 -71.84569186 104.1152469 -73.5625 105.828125 C-74.37710693 106.6467804 -75.19171387 107.46543579 -76.03100586 108.30889893 C-77.16227905 109.43071564 -77.16227905 109.43071564 -78.31640625 110.57519531 C-78.98099854 111.23819641 -79.64559082 111.90119751 -80.33032227 112.58428955 C-82 114 -82 114 -84 114 C-84.33 114.99 -84.66 115.98 -85 117 C-85.66 117 -86.32 117 -87 117 C-87.33 117.99 -87.66 118.98 -88 120 C-88.66 120 -89.32 120 -90 120 C-90.33 120.99 -90.66 121.98 -91 123 C-91.66 123 -92.32 123 -93 123 C-93.33 123.99 -93.66 124.98 -94 126 C-94.66 126 -95.32 126 -96 126 C-96 126.66 -96 127.32 -96 128 C-96.66 128 -97.32 128 -98 128 C-98.33 128.99 -98.66 129.98 -99 131 C-99.66 131 -100.32 131 -101 131 C-101.33 131.99 -101.66 132.98 -102 134 C-102.66 134 -103.32 134 -104 134 C-104.33 134.99 -104.66 135.98 -105 137 C-105.66 137 -106.32 137 -107 137 C-107 137.66 -107 138.32 -107 139 C-124.93040066 155.73731317 -144.98424026 164.62099619 -168.875 169 C-170.24269733 169.25547171 -171.6102906 169.51150111 -172.9777832 169.76806641 C-175.70493697 170.27847526 -178.43295307 170.78388737 -181.16162109 171.28613281 C-184.6084916 171.92718671 -188.04892069 172.59345705 -191.48828125 173.2734375 C-210.01054507 176.89782908 -226.35016319 177.53106896 -242.76171875 166.71875 C-253.62772877 158.37486796 -261.19797726 147.52212098 -264 134 C-267.36736675 101.46024169 -256.3964351 59.4616828 -239 32 C-238.6078833 31.27723877 -238.2157666 30.55447754 -237.81176758 29.80981445 C-236 28 -236 28 -232.8137207 27.54589844 C-230.88919067 27.57731934 -230.88919067 27.57731934 -228.92578125 27.609375 C-227.90003242 27.61786469 -227.90003242 27.61786469 -226.8535614 27.62652588 C-224.67249101 27.64889184 -222.49307247 27.69908235 -220.3125 27.75 C-218.83270605 27.770065 -217.3528863 27.78831578 -215.87304688 27.8046875 C-212.2481624 27.84875526 -208.62424244 27.91778178 -205 28 C-208.20448254 31.78245998 -211.44702077 35.48004102 -214.875 39.0625 C-225.68996222 51.2034346 -230.92717425 65.99391582 -234 81.6875 C-234.25346191 82.95247314 -234.50692383 84.21744629 -234.76806641 85.52075195 C-235.52680391 89.34447181 -236.26731771 93.17120884 -237 97 C-237.2175293 98.13050781 -237.43505859 99.26101563 -237.65917969 100.42578125 C-238.24573337 103.51055007 -238.81524151 106.59776691 -239.375 109.6875 C-239.54257813 110.58750732 -239.71015625 111.48751465 -239.8828125 112.41479492 C-241.88337997 123.88033165 -241.60573628 132.04230836 -235 142 C-230.33105329 147.33863401 -224.80072664 151.5369614 -217.55737305 152.2355957 C-207.45417134 152.46108721 -197.83048745 150.6669742 -187.93457031 148.80175781 C-185.00835628 148.25157115 -182.07893446 147.72215444 -179.1484375 147.1953125 C-166.49005126 144.88194853 -153.9721555 142.52879358 -142.5 136.4375 C-140.81390625 135.56931641 -140.81390625 135.56931641 -139.09375 134.68359375 C-127.93943007 127.9113023 -118.56396038 117.850497 -109.43261719 108.64379883 C-108.24065992 107.44963309 -107.0482478 106.25592122 -105.85542297 105.06262207 C-103.31645752 102.52075423 -100.78064277 99.97580178 -98.24736786 97.42826271 C-94.24381929 93.40223508 -90.23299817 89.38350358 -86.22125244 85.36564636 C-79.88666754 79.0197452 -73.55678795 72.66917497 -67.22900033 66.31649655 C-55.86439042 54.90728132 -44.49390953 43.50392333 -33.11836171 32.10561389 C-29.12774214 28.10657544 -25.13994678 24.10474763 -21.154387 20.10066664 C-18.68771451 17.62339573 -16.21904864 15.14811857 -13.74986839 12.67334747 C-12.60124988 11.52124304 -11.45350467 10.36826724 -10.30667305 9.21438408 C-8.74884527 7.64718349 -7.18802926 6.08302258 -5.62640381 4.51960754 C-4.31467005 3.20259464 -4.31467005 3.20259464 -2.97643661 1.85897541 C-1 0 -1 0 0 0 Z " fill="#EDCF75" transform="translate(436,262)"/>
<path d="M0 0 C0 7.59 0 15.18 0 23 C-3.05989583 23.81380208 -6.11979167 24.62760417 -9.1796875 25.44140625 C-19.06485061 28.97720044 -24.9900187 35.9718249 -30.51733398 44.52514648 C-40.66987153 59.51150935 -51.69540125 73.66371359 -63.4375 87.4375 C-63.96887919 88.06277556 -64.50025839 88.68805113 -65.04773998 89.33227444 C-92.90719536 121.94179787 -121.53180525 142.23818333 -165.0981521 146.02022547 C-190.419875 147.92508234 -215.77195127 147.58005895 -241.125 146.625 C-242.34089609 146.58031885 -243.55679217 146.53563769 -244.8095336 146.48960257 C-276.62049328 145.29807009 -308.32220373 143.12736525 -340 140 C-340 139.67 -340 139.34 -340 139 C-339.10919991 139.03171799 -338.21839981 139.06343597 -337.30060577 139.09611511 C-315.42454402 139.86072036 -293.55293488 140.39333317 -271.6652298 140.68133545 C-261.07805997 140.82599427 -250.50270335 141.04439401 -239.921875 141.44482422 C-227.70804836 141.89706833 -215.50395764 142.16108283 -203.28125 142.125 C-201.80625219 142.12064564 -201.80625219 142.12064564 -200.30145645 142.11620331 C-176.50849346 141.9473519 -157.11573038 140.52475384 -139.38171387 123.47802734 C-131.988297 115.65133727 -125.52549933 107.23906956 -120 98 C-121.07741455 97.9597168 -122.1548291 97.91943359 -123.26489258 97.87792969 C-124.70396885 97.80987716 -126.14301363 97.74115664 -127.58203125 97.671875 C-128.28912231 97.64722168 -128.99621338 97.62256836 -129.72473145 97.59716797 C-137.82939142 97.17759972 -145.14260625 94.01466209 -151.0625 88.375 C-151.701875 87.59125 -152.34125 86.8075 -153 86 C-153.556875 85.360625 -154.11375 84.72125 -154.6875 84.0625 C-157.73105638 79.27976854 -158.65294309 74.59665509 -158 69 C-155.18034371 61.08230445 -151.06047954 55.58270088 -143.55078125 51.75 C-141.38602472 50.77127177 -139.2163559 49.85437756 -137 49 C-137.57344937 46.13275314 -137.8614515 45.1385485 -140 43 C-142.72464997 42.6506859 -144.33452156 42.58099506 -146.6875 44.0625 C-148.23777869 46.12322494 -148.23777869 46.12322494 -148.9375 49.5 C-150 53 -150 53 -151.6875 55 C-155.14011307 56.49302187 -157.4226815 55.97563232 -161 55 C-163.9115918 52.65194209 -163.99493112 51.037383 -164.5 47.3125 C-164.25752368 42.10410875 -162.24102296 38.02897808 -159 34 C-153.181947 29.20512184 -148.34632864 26.54796298 -140.796875 26.66796875 C-134.88570702 27.36971355 -129.94951445 29.70645359 -126.07421875 34.265625 C-122.59138948 39.41921484 -120.86357847 42.72460953 -121 49 C-120.14728516 49.14695312 -120.14728516 49.14695312 -119.27734375 49.296875 C-110.73412165 50.95132202 -105.45733219 54.12276135 -99.578125 60.4140625 C-97.98609024 63.02279273 -97.24789255 65.23889643 -96.40136719 68.16162109 C-96.1371698 69.06641205 -95.87297241 69.971203 -95.60076904 70.90341187 C-95.30338837 71.94122299 -95.30338837 71.94122299 -95 73 C-94.31476761 72.30588516 -93.62953522 71.61177032 -92.92353821 70.8966217 C-86.41909995 64.31059011 -79.90373976 57.735533 -73.37792683 51.17067814 C-70.02443236 47.79643615 -66.67470769 44.41863199 -63.33374023 41.03198242 C-60.1007443 37.75506651 -56.85766503 34.48843183 -53.60777855 31.22826958 C-52.37847551 29.9916571 -51.152657 28.75156916 -49.93065834 27.50773811 C-36.35060157 13.69511043 -20.52318882 0 0 0 Z " fill="#E8CB73" transform="translate(436,75)"/>
<path d="M0 0 C1.11375 -0.00128906 2.2275 -0.00257812 3.375 -0.00390625 C12.45700667 1.41515729 18.26401679 6.07434679 24.578125 12.4765625 C25.35258972 13.24624359 26.12705444 14.01592468 26.92498779 14.80892944 C28.55119236 16.43174857 30.17116832 18.06083101 31.78515625 19.69580078 C34.23954411 22.17693019 36.71942376 24.63028579 39.203125 27.08203125 C40.7880635 28.67027479 42.37144973 30.2600692 43.953125 31.8515625 C44.68654114 32.57485748 45.41995728 33.29815247 46.17559814 34.04336548 C52.34697235 40.35543543 57.02569329 47.04847855 57.625 56.0625 C56.84748166 68.69717295 48.19105377 75.77139781 39.60302734 83.99267578 C37.03733638 86.5052242 34.71777097 89.20412182 32.3984375 91.94140625 C30.38361626 94.27702305 28.21358941 96.41598906 26 98.5625 C21.70494237 96.90645113 18.83846958 93.66701694 15.67089844 90.46044922 C15.04608582 89.83592865 14.42127319 89.21140808 13.77752686 88.56796265 C11.71669931 86.5057435 9.66304347 84.4365341 7.609375 82.3671875 C6.18063275 80.93471453 4.75144785 79.50268293 3.32183838 78.07107544 C-0.43742017 74.30418516 -4.19063357 70.53132707 -7.94262695 66.75720215 C-11.77322817 62.90613269 -15.60950595 59.06072729 -19.4453125 55.21484375 C-26.96911378 47.66960066 -34.48654202 40.11804189 -42 32.5625 C-41.05015011 31.44839938 -40.099448 30.33502531 -39.14839172 29.22195435 C-38.61906194 28.60186556 -38.08973215 27.98177677 -37.54436207 27.34289742 C-33.94761796 23.19643847 -30.04540656 19.33862433 -26.1875 15.4375 C-25.33607422 14.55707031 -24.48464844 13.67664063 -23.60742188 12.76953125 C-16.72591381 5.81988944 -10.27356228 -0.20214185 0 0 Z " fill="#E6889D" transform="translate(440,112.4375)"/>
<path d="M0 0 C0.01458252 0.74233887 0.02916504 1.48467773 0.04418945 2.24951172 C0.74697705 36.58457662 0.74697705 36.58457662 8 70 C8.35835938 71.22332031 8.71671875 72.44664062 9.0859375 73.70703125 C12.90062878 86.13678036 18.90190609 97.1310437 26 108 C25.18595703 108.68835938 25.18595703 108.68835938 24.35546875 109.390625 C23.64003906 110.00421875 22.92460937 110.6178125 22.1875 111.25 C21.12595703 112.15492188 21.12595703 112.15492188 20.04296875 113.078125 C18.08110329 114.92370398 16.54330375 116.79945332 15 119 C-2.78563522 115.55761899 -2.78563522 115.55761899 -8 109 C-9.36487349 106.11093787 -10.43490653 103.13546967 -11.5 100.125 C-14.43479016 91.91026772 -16.99448678 85.43599615 -25 81 C-28.78753713 79.41057139 -32.65916448 78.06571494 -36.54296875 76.73242188 C-41.35493829 74.97713749 -44.27528627 73.5630748 -47 69 C-48.51953125 65.625 -48.51953125 65.625 -49.8125 62 C-50.25207031 60.80375 -50.69164062 59.6075 -51.14453125 58.375 C-52.04926067 54.80565653 -52.11576852 53.4423446 -51 50 C-48.98828125 47.50053406 -48.98828125 47.50053406 -46.3125 44.8425293 C-45.82628174 44.35412064 -45.34006348 43.86571198 -44.83911133 43.36250305 C-43.23552307 41.75661006 -41.61814112 40.16543596 -40 38.57421875 C-38.88201253 37.46115551 -37.76483578 36.34727743 -36.6484375 35.23262024 C-34.31065868 32.90247345 -31.96657846 30.57893556 -29.6171875 28.26049805 C-26.59878175 25.28178131 -23.59135091 22.29228916 -20.58789062 19.29851055 C-17.72878956 16.44935689 -14.86473538 13.60520555 -12 10.76171875 C-11.17580566 9.94261804 -11.17580566 9.94261804 -10.33496094 9.10696983 C-8.78851688 7.57204252 -7.23864166 6.04067617 -5.6875 4.51049805 C-4.80449219 3.63733444 -3.92148437 2.76417084 -3.01171875 1.86454773 C-1 0 -1 0 0 0 Z " fill="#79CCF7" transform="translate(291,252)"/>
<path d="M0 0 C7.38002688 3.25392094 10.80226657 8.14750189 14.328125 15.19921875 C14.368117 17.19881887 14.37159299 19.19969117 14.328125 21.19921875 C14.89660156 21.2971875 15.46507812 21.39515625 16.05078125 21.49609375 C25.68481077 23.36178227 31.59874335 27.25550851 37.328125 35.19921875 C39.65695447 39.95813114 40.26474613 44.98926372 39.328125 50.19921875 C36.04538885 58.20088811 30.92077259 63.55377574 23.15625 67.2265625 C14.66185137 70.31932173 4.41946623 70.8944489 -4.19140625 68.02734375 C-9.49627527 65.48937929 -13.94657191 62.76571932 -17.671875 58.19921875 C-18.5071875 57.24015625 -18.5071875 57.24015625 -19.359375 56.26171875 C-22.40293138 51.47898729 -23.32481809 46.79587384 -22.671875 41.19921875 C-19.85221871 33.2815232 -15.73235454 27.78191963 -8.22265625 23.94921875 C-6.05789972 22.97049052 -3.8882309 22.05359631 -1.671875 21.19921875 C-2.24532437 18.33197189 -2.5333265 17.33776725 -4.671875 15.19921875 C-7.39652497 14.84990465 -9.00639656 14.78021381 -11.359375 16.26171875 C-12.90965369 18.32244369 -12.90965369 18.32244369 -13.609375 21.69921875 C-14.671875 25.19921875 -14.671875 25.19921875 -16.359375 27.19921875 C-19.81198807 28.69224062 -22.0945565 28.17485107 -25.671875 27.19921875 C-28.5834668 24.85116084 -28.66680612 23.23660175 -29.171875 19.51171875 C-28.92939868 14.3033275 -26.91289796 10.22819683 -23.671875 6.19921875 C-16.29700974 0.12131256 -9.50974986 -2.85014433 0 0 Z " fill="#E7899D" transform="translate(300.671875,102.80078125)"/>
<path d="M0 0 C4.23589151 1.65396543 7.09894047 4.79618199 10.25317383 7.94677734 C10.86983917 8.55511917 11.48650452 9.163461 12.12185669 9.79023743 C14.15572058 11.8000308 16.18186653 13.81738094 18.20703125 15.8359375 C19.61610828 17.23604981 21.02526361 18.63608333 22.43449402 20.03604126 C25.38445989 22.96952531 28.33001018 25.90736807 31.27319336 28.84765625 C35.05243152 32.62149492 38.84757913 36.37889333 42.6468401 40.13255882 C45.56079754 43.01684405 48.46350648 45.91224804 51.3631649 48.81090164 C52.75819427 50.20171335 54.15736251 51.58838603 55.56064796 52.97086716 C57.51699831 54.90049364 59.45706921 56.8451428 61.39379883 58.79443359 C61.98020645 59.36600693 62.56661407 59.93758026 63.17079163 60.526474 C64.75544739 62.14071655 64.75544739 62.14071655 67 65 C66.52220221 69.08869584 64.41421041 70.93322752 61.52734375 73.765625 C60.62822266 74.65507812 59.72910156 75.54453125 58.80273438 76.4609375 C57.85720703 77.38132812 56.91167969 78.30171875 55.9375 79.25 C54.97783027 80.19461673 54.01883771 81.13992195 53.06054688 82.0859375 C50.71361172 84.39749172 48.35996609 86.7017634 46 89 C41.76410849 87.34603457 38.90105953 84.20381801 35.74682617 81.05322266 C35.13016083 80.44488083 34.51349548 79.836539 33.87814331 79.20976257 C31.84427942 77.1999692 29.81813347 75.18261906 27.79296875 73.1640625 C26.38389172 71.76395019 24.97473639 70.36391667 23.56550598 68.96395874 C20.61554011 66.03047469 17.66998982 63.09263193 14.72680664 60.15234375 C10.94756848 56.37850508 7.15242087 52.62110667 3.3531599 48.86744118 C0.43920246 45.98315595 -2.46350648 43.08775196 -5.3631649 40.18909836 C-6.75819427 38.79828665 -8.15736251 37.41161397 -9.56064796 36.02913284 C-11.51699831 34.09950636 -13.45706921 32.1548572 -15.39379883 30.20556641 C-15.98020645 29.63399307 -16.56661407 29.06241974 -17.17079163 28.473526 C-18.75544739 26.85928345 -18.75544739 26.85928345 -21 24 C-20.52220221 19.91130416 -18.41421041 18.06677248 -15.52734375 15.234375 C-14.62822266 14.34492188 -13.72910156 13.45546875 -12.80273438 12.5390625 C-11.85720703 11.61867187 -10.91167969 10.69828125 -9.9375 9.75 C-8.97783027 8.80538327 -8.01883771 7.86007805 -7.06054688 6.9140625 C-4.71361172 4.60250828 -2.35996609 2.2982366 0 0 Z " fill="#8BA0DE" transform="translate(386,156)"/>
<path d="M0 0 C2.06372711 1.58002692 2.89696202 2.44062201 3.37231445 5.02124023 C3.3693335 5.77606689 3.36635254 6.53089355 3.36328125 7.30859375 C3.36263672 8.13810547 3.36199219 8.96761719 3.36132812 9.82226562 C3.34521484 10.68529297 3.32910156 11.54832031 3.3125 12.4375 C3.31572266 13.29666016 3.31894531 14.15582031 3.32226562 15.04101562 C3.28580431 19.31361911 3.15252384 22.22143426 1 26 C1.40992188 26.44730469 1.81984375 26.89460938 2.2421875 27.35546875 C6.98254633 32.67419672 9.47356243 36.46724075 9.25 43.88671875 C8.52156477 50.04427282 5.87867006 56.04806421 1 60 C-9.90870511 66.38084532 -21.18768973 69.42193836 -33.76953125 66.31640625 C-36.00630838 65.37233744 -37.9604687 64.31490741 -40 63 C-41.07701172 62.32904297 -41.07701172 62.32904297 -42.17578125 61.64453125 C-47.59500576 57.94915512 -50.37204309 54.20555535 -52.75 48.0625 C-53.61619394 40.91639998 -53.20733569 35.95242379 -49 30 C-42.97095154 23.01441981 -34.68432 18.54887441 -25.48046875 17.66015625 C-20.83691487 17.61325167 -16.47776132 17.68681038 -12 19 C-12.04640625 18.04738281 -12.0928125 17.09476563 -12.140625 16.11328125 C-12.17671875 14.85902344 -12.2128125 13.60476562 -12.25 12.3125 C-12.29640625 11.07113281 -12.3428125 9.82976562 -12.390625 8.55078125 C-11.93733018 4.4303313 -10.89748679 2.89212108 -8 0 C-5.06317146 -1.46841427 -3.13175678 -0.76696084 0 0 Z " fill="#E7899D" transform="translate(164,105)"/>
<path d="M0 0 C0.66 0 1.32 0 2 0 C2.30292969 0.80824219 2.60585937 1.61648438 2.91796875 2.44921875 C6.38612833 11.29569349 9.85572797 15.98229214 18 21 C21.34907984 22.43039383 24.80152973 23.55803378 28.25390625 24.7109375 C32.43809157 26.18212553 35.36668705 27.385882 38 31 C39.37251379 33.93709088 40.47730751 36.94682921 41.5625 40 C44.00852343 46.90681693 44.00852343 46.90681693 48 53 C48 53.66 48 54.32 48 55 C48.86818359 55.433125 48.86818359 55.433125 49.75390625 55.875 C51.15967659 56.57910758 52.56363413 57.28685952 53.96484375 58 C57.59050066 59.83795677 61.18832141 61.57062053 65 63 C59.06723794 69.76795672 48.67907325 72.45016549 40 74 C35.5592571 73.61576578 33.54367289 72.06592777 30.39331055 68.99023438 C29.51277512 68.13844604 28.63223969 67.28665771 27.72502136 66.40905762 C26.7883815 65.4800061 25.85174164 64.55095459 24.88671875 63.59375 C23.90759197 62.63002759 22.92824382 61.66653003 21.94868469 60.70324707 C19.89978926 58.68278249 17.85955761 56.65398829 15.82397461 54.62011719 C13.22175594 52.02307756 10.59095762 49.45724727 7.95160198 46.89803314 C5.91925243 44.91782407 3.90772148 42.91742538 1.90131569 40.91096497 C0.47475931 39.49411675 -0.97236427 38.09807362 -2.41975403 36.70251465 C-9.56705243 29.45412804 -9.56705243 29.45412804 -9.63427734 24.04711914 C-8.71722504 15.68561551 -5.57015132 6.4416716 0 0 Z " fill="#FAFAFA" transform="translate(226,319)"/>
<path d="M0 0 C64.68 0 129.36 0 196 0 C194.02 2.31 192.04 4.62 190 7 C188.88159447 8.43374628 187.77574555 9.87749486 186.68992615 11.33607483 C174.81462949 26.89673272 160.87599994 45.05285611 140.64097023 48.74059105 C125.48691821 50.62729099 110.19935842 49.70363081 95.01245117 48.67791748 C88.33791869 48.2716658 81.6580651 48.09937605 74.97460938 47.90429688 C61.96787562 47.49162409 48.98590954 46.83854488 36 46 C36 45.67 36 45.34 36 45 C36.95909271 45.08073761 37.91818542 45.16147522 38.90634155 45.24465942 C48.15954752 45.99344001 57.40142429 46.49531863 66.68060875 46.78495979 C71.45074843 46.94104608 76.18867488 47.16904449 80.94287109 47.59570312 C95.59953172 48.79662131 104.62194543 46.9558791 120 44 C133.86 30.14 147.72 16.28 162 2 C108.54 1.67 55.08 1.34 0 1 C0 0.67 0 0.34 0 0 Z " fill="#DAC16D" transform="translate(96,229)"/>
<path d="M0 0 C7.38002688 3.25392094 10.80226657 8.14750189 14.328125 15.19921875 C15.01906488 22.22377421 15.01906488 22.22377421 12.203125 26.19921875 C9.328125 28.19921875 9.328125 28.19921875 6.265625 28.82421875 C3.328125 28.19921875 3.328125 28.19921875 1.078125 26.07421875 C-0.69629499 23.1591002 -1.66213741 20.44480385 -2.671875 17.19921875 C-4.49391081 14.96955128 -4.49391081 14.96955128 -7.109375 14.88671875 C-9.63769665 15.01021028 -9.63769665 15.01021028 -11.359375 16.26171875 C-12.90965369 18.32244369 -12.90965369 18.32244369 -13.609375 21.69921875 C-14.671875 25.19921875 -14.671875 25.19921875 -16.359375 27.19921875 C-19.81198807 28.69224062 -22.0945565 28.17485107 -25.671875 27.19921875 C-28.5834668 24.85116084 -28.66680612 23.23660175 -29.171875 19.51171875 C-28.92939868 14.3033275 -26.91289796 10.22819683 -23.671875 6.19921875 C-16.29700974 0.12131256 -9.50974986 -2.85014433 0 0 Z " fill="#050503" transform="translate(300.671875,102.80078125)"/>
<path d="M0 0 C2.4375 1.625 2.4375 1.625 4 4 C4.41475821 7.54330665 4.42358802 9.36033331 2.43115234 12.36914062 C1.69848145 13.12388672 0.96581055 13.87863281 0.2109375 14.65625 C-0.61180664 15.51605469 -1.43455078 16.37585938 -2.28222656 17.26171875 C-3.1790918 18.16535156 -4.07595703 19.06898438 -5 20 C-5.90975586 20.93457031 -6.81951172 21.86914062 -7.75683594 22.83203125 C-10.12378988 25.25494761 -12.51324044 27.65412867 -14.91357422 30.04394531 C-16.39801645 31.52293186 -17.87691255 33.00731891 -19.35546875 34.4921875 C-20.30697047 35.44302986 -21.25878157 36.39356275 -22.2109375 37.34375 C-23.05962402 38.19130859 -23.90831055 39.03886719 -24.78271484 39.91210938 C-27.73250728 42.68976021 -29.35435406 43.9295659 -33.4375 44.375 C-37 44 -37 44 -39.4375 42.375 C-41 40 -41 40 -41.6875 37.25 C-39.85369917 28.58112333 -29.07532196 20.92182803 -22.90063477 14.77026367 C-21.17019863 13.04525287 -19.4452551 11.31487572 -17.72070312 9.58398438 C-16.62011271 8.48405367 -15.51921272 7.38443262 -14.41796875 6.28515625 C-13.90340622 5.76856949 -13.38884369 5.25198273 -12.85868835 4.71974182 C-8.47690868 0.36687138 -6.28371721 -0.54169976 0 0 Z " fill="#050809" transform="translate(345,261)"/>
<path d="M0 0 C2.16796875 1.27734375 2.16796875 1.27734375 4.1875 2.9375 C8.19784553 6.18104906 10.42050402 7.34752181 15.76953125 7.2890625 C20.20807945 6.71383909 24.47446659 4.6595596 27.51171875 1.35546875 C29 0 29 0 32.5 0.125 C36 1 36 1 37.9375 2.125 C39.70590549 5.24571558 39.47628428 7.4874034 39 11 C34.96564868 17.72391887 28.2589606 20.58034647 21 23 C9.95820862 24.00510455 2.93957294 22.2071975 -6 15.875 C-8.88064202 13.17439811 -9.93468796 11.51316606 -10.4375 7.5625 C-10 4 -10 4 -7.8125 1.5625 C-4.71804629 -0.15664095 -3.46226591 -0.37656064 0 0 Z " fill="#060603" transform="translate(211,116)"/>
<path d="M0 0 C6.92810724 5.66574049 13.14204142 12.03033639 19.4375 18.375 C20.56161467 19.50413955 21.68596174 20.63304778 22.81054688 21.76171875 C25.54305235 24.50515188 28.27239009 27.25169985 31 30 C30.67 30.66 30.34 31.32 30 32 C21.41475597 34.60303644 11.04848417 37.43075164 2.625 33.375 C-1.48925421 29.65257952 -3.89527853 27.01107961 -4.19140625 21.32421875 C-4.09948194 16.97280164 -3.41592105 12.82166644 -2.5625 8.5625 C-2.42779297 7.84384766 -2.29308594 7.12519531 -2.15429688 6.38476562 C-1.13878623 1.13878623 -1.13878623 1.13878623 0 0 Z " fill="#4C545E" transform="translate(213,365)"/>
<path d="M0 0 C2.97366742 0.96967416 3.98188032 1.53396864 5.875 3.9375 C6.4978433 7.05322188 6.33855069 10.2039207 6.3125 13.375 C6.33248047 14.23416016 6.35246094 15.09332031 6.37304688 15.97851562 C6.36819307 22.23507351 6.36819307 22.23507351 4.0703125 25.5078125 C0.8789517 27.58617203 -1.40540302 27.41090325 -5.125 26.9375 C-7.26743636 25.3558085 -8.02229801 24.45429401 -8.54492188 21.82446289 C-8.59769327 19.21518125 -8.63238823 16.60989117 -8.625 14 C-8.65335938 13.09314453 -8.68171875 12.18628906 -8.7109375 11.25195312 C-8.73045788 4.6199057 -8.73045788 4.6199057 -5.7890625 1.3046875 C-3.125 -0.0625 -3.125 -0.0625 0 0 Z " fill="#030302" transform="translate(161.125,104.0625)"/>
</svg>
